<?xml version="1.0" encoding="UTF-8" standalone="no"?>
<!DOCTYPE svg PUBLIC "-//W3C//DTD SVG 1.1//EN" "http://www.w3.org/Graphics/SVG/1.1/DTD/svg11.dtd">
<svg width="100%" height="100%" viewBox="0 0 1853 418" version="1.1" xmlns="http://www.w3.org/2000/svg" xmlns:xlink="http://www.w3.org/1999/xlink" xml:space="preserve" xmlns:serif="http://www.serif.com/" style="fill-rule:evenodd;clip-rule:evenodd;stroke-linejoin:round;stroke-miterlimit:2;">
    <style id="portal-logo-theme">
        .logo-foreground { fill: currentColor; }
        .logo-accent { fill: rgb(255, 60, 0); }
    </style>
    <g id="PORTAL" transform="matrix(1.335572,0,0,1.335572,-546.553354,-927.179269)">
        <g transform="matrix(0.748743,0,0,-0.748743,-595.884392,2568.330641)">
            <path d="M2468.81,2401.024L2468.81,2110.987L2552.933,2110.987L2552.933,2154.236L2519.561,2154.236L2519.561,2401.024L2468.81,2401.024Z" class="logo-foreground"/>
        </g>
        <g transform="matrix(0.748743,0,0,0.748743,-761.805876,-810.00551)">
            <path d="M2594.853,2360.347L2591.703,2401.024L2540.867,2401.024L2572.179,2110.987L2648.02,2110.987L2679.333,2401.024L2628.497,2401.024L2625.346,2360.347L2594.853,2360.347ZM2610.1,2163.476L2598.189,2317.277L2622.011,2317.277L2610.1,2163.476Z" class="logo-foreground"/>
        </g>
        <g transform="matrix(0.748743,0,0,0.748743,-761.805876,-810.00551)">
            <path d="M2468.81,2154.236L2435.929,2154.236L2435.929,2110.987L2552.933,2110.987L2552.933,2154.236L2519.561,2154.236L2519.561,2401.024L2468.81,2401.024L2468.81,2154.236Z" class="logo-foreground"/>
        </g>
        <g transform="matrix(0.748743,0,0,0.748743,-552.559732,-810.00551)">
            <path d="M2085.243,2297.521L2073.88,2297.521L2073.88,2400.891L2022.991,2400.891L2022.991,2110.987L2106.696,2110.987C2118.274,2110.987 2129.292,2114.997 2136.571,2121.838C2144.422,2129.217 2149.087,2140.89 2149.087,2153.379L2149.087,2256.03C2149.087,2266.769 2144.821,2278.068 2137.228,2285.662C2135.033,2287.856 2132.529,2289.773 2129.818,2291.389L2149.087,2400.891L2099.261,2400.891L2085.243,2297.521ZM2095.064,2154.039L2073.612,2154.039L2073.612,2254.315L2095.356,2254.315C2097.001,2254.315 2098.333,2252.982 2098.333,2251.338L2098.333,2157.308C2098.333,2155.503 2096.87,2154.039 2095.064,2154.039Z" class="logo-foreground"/>
        </g>
        <g transform="matrix(0.731362,0,0,0.746601,-721.48324,-805.146105)">
            <path d="M2245.718,2108.088C2257.049,2108.088 2267.31,2112.579 2274.746,2119.843C2282.209,2127.133 2286.827,2138.22 2286.827,2149.361L2286.827,2362.445C2286.827,2372.762 2282.867,2383.176 2276.354,2390.301C2268.827,2398.536 2256.867,2403.719 2244.694,2403.719L2200.398,2403.719C2189.615,2403.719 2178.777,2399.652 2171.445,2392.998C2163.339,2385.642 2158.265,2374.123 2158.265,2362.445L2158.265,2149.361C2158.265,2137.88 2163.169,2126.519 2171.037,2119.183C2178.412,2112.308 2189.414,2108.088 2200.398,2108.088L2244.694,2108.088M2231.703,2151.564L2213.477,2151.564C2211.567,2151.564 2210.018,2153.081 2210.018,2154.953L2210.018,2357.188C2210.018,2359.059 2211.567,2360.576 2213.477,2360.576L2231.703,2360.576C2233.613,2360.576 2235.162,2359.059 2235.162,2357.188L2235.162,2154.953C2235.162,2153.081 2233.613,2151.564 2231.703,2151.564" class="logo-foreground"/>
        </g>
        <g transform="matrix(0.748743,0,0,0.748743,-761.805876,-810.00551)">
            <path d="M2073.88,2400.891L2022.991,2400.891L2022.991,2110.987C2022.991,2110.987 2021.991,2110.987 2106.696,2110.987C2118.274,2110.987 2129.292,2114.997 2136.571,2121.838C2144.422,2129.217 2149.087,2140.89 2149.087,2153.379C2149.087,2258.03 2149.087,2256.03 2149.087,2256.03C2149.087,2266.769 2144.821,2278.068 2137.228,2285.662C2129.634,2293.255 2118.335,2297.521 2107.596,2297.521L2073.88,2297.521L2073.88,2400.891M2095.064,2154.039L2073.612,2154.039L2073.612,2254.315L2095.356,2254.315C2097.001,2254.315 2098.333,2252.982 2098.333,2251.338L2098.333,2157.308C2098.333,2155.503 2096.87,2154.039 2095.064,2154.039" class="logo-foreground"/>
        </g>
    </g>
    <g id="Portal-Icon" serif:id="Portal Icon" transform="matrix(1.335572,0,0,1.335572,-546.553354,-927.179269)">
        <path id="path2" d="M577.545,733.396L424.712,989.327L725.256,989.327L576.55,917.484L488.729,954.979L565.636,897.314L577.545,733.396Z" class="logo-accent" style="fill-rule:nonzero;"/>
        <path id="path3" d="M593.253,793.081C593.253,793.081 680.333,945.583 680.319,945.583C680.333,945.583 593.253,893.598 593.253,893.598L593.253,793.081Z" class="logo-accent" style="fill-rule:nonzero;"/>
    </g>
    <g id="BATTLEFIELD" transform="matrix(0.184876,0,0,0.185557,458.990028,15.659442)">
        <path d="M179.689,126.038L179.689,71.57C179.689,2.321 113.571,7.135 99.364,7.135L0,7.135L0,364.865L99.364,364.865C113.571,364.865 179.689,369.679 179.689,300.412L179.689,245.944C179.689,200.279 159.433,189.167 152.991,185.982C159.433,182.797 179.689,171.685 179.689,126.02L179.689,126.038ZM58.083,59.903L98.165,59.903C117.418,59.903 121.373,66.577 121.373,79.729L121.373,139.548C121.373,151.93 114.323,159.607 98.397,159.607L58.083,159.607L58.083,59.903ZM121.373,292.253C121.373,305.405 117.418,312.079 98.165,312.079L58.083,312.079L58.083,212.375L98.397,212.375C114.323,212.375 121.373,220.052 121.373,232.434L121.373,292.253ZM2140.641,71.588C2140.641,2.321 2074.524,7.135 2060.316,7.135L1960.952,7.135L1960.952,364.865L2060.316,364.865C2074.524,364.865 2140.641,369.679 2140.641,300.412L2140.641,71.588ZM2082.325,292.253C2082.325,305.405 2078.371,312.079 2059.117,312.079L2019.035,312.079L2019.035,59.832L2059.35,59.832C2075.275,59.832 2082.325,67.508 2082.325,79.89L2082.325,292.253ZM1188.75,7.063L1188.75,59.832L1098.261,59.832L1098.261,159.607L1183.382,159.607L1183.382,212.375L1098.261,212.375L1098.261,312.151L1188.75,312.151L1188.75,364.937L1040.178,364.937L1040.178,7.063L1188.75,7.063ZM1722.912,7.063L1722.912,59.832L1632.424,59.832L1632.424,159.607L1717.544,159.607L1717.544,212.375L1632.424,212.375L1632.424,312.151L1722.912,312.151L1722.912,364.937L1574.341,364.937L1574.341,7.063L1722.912,7.063ZM1396.961,7.063L1396.961,59.832L1306.473,59.832L1306.473,159.607L1391.593,159.607L1391.593,212.375L1306.473,212.375L1306.473,364.937L1248.39,364.937L1248.39,7.063L1396.961,7.063ZM1840.635,7.063L1840.635,312.151L1931.124,312.151L1931.124,364.937L1782.552,364.937L1782.552,7.063L1840.635,7.063ZM919.879,7.063L919.879,312.151L1010.368,312.151L1010.368,364.937L861.796,364.937L861.796,7.063L919.879,7.063ZM1514.701,7.063L1514.701,364.937L1456.618,364.937L1456.618,7.063L1514.701,7.063ZM368.574,364.937L426.407,364.937L371.026,7.063L264.88,7.063L209.499,364.937L267.332,364.937L281.235,265.162L354.689,265.162L368.592,364.937L368.574,364.937ZM288.607,212.393L309.883,59.849L325.987,59.849L347.263,212.393L288.59,212.393L288.607,212.393ZM824.076,7.063L636.783,7.063L636.783,59.849L701.379,59.849L701.379,364.937L759.462,364.937L759.462,59.849L824.076,59.849L824.076,7.063ZM617.923,7.063L430.63,7.063L430.63,59.849L495.226,59.849L495.226,364.937L553.309,364.937L553.309,59.849L617.923,59.849L617.923,7.063ZM2169.7,11.554L2169.7,33.904L2164.994,33.904L2164.994,11.554L2155.94,11.554L2155.94,7.063L2178.772,7.063L2178.772,11.554L2169.7,11.554ZM2201.962,33.957L2201.962,15.598L2196.612,27.354L2193.517,27.354L2188.167,15.634L2188.167,33.939L2183.46,33.939L2183.46,7.117L2188.846,7.117L2195.127,20.358L2201.318,7.117L2206.669,7.117L2206.669,33.957L2201.962,33.957Z" class="logo-foreground" style="fill-rule:nonzero;"/>
    </g>
    <g transform="matrix(2.968218,0,0,1.420041,-1818.204421,-582.945498)">
        <path d="M1043.412,482.234L1070.49,482.234C1075.421,482.234 1079.213,485.006 1081.865,490.549C1084.517,496.092 1085.843,504.018 1085.843,514.326L1085.843,654.363C1085.843,664.477 1084.517,672.354 1081.865,677.994C1079.213,683.635 1075.421,686.455 1070.49,686.455L1043.412,686.455L1043.412,482.234ZM1054.16,656.114L1067.419,656.114C1068.35,656.114 1068.815,655.141 1068.815,653.196L1068.815,515.493C1068.815,513.548 1068.35,512.576 1067.419,512.576L1054.16,512.576L1060.44,499.447L1060.44,669.242L1054.16,656.114Z" class="logo-foreground" style="fill-rule:nonzero;"/>
        <path d="M1090.868,512.576C1090.868,502.267 1092.217,494.342 1094.915,488.799C1097.614,483.255 1101.382,480.484 1106.221,480.484L1117.945,480.484C1122.877,480.484 1126.669,483.255 1129.321,488.799C1131.973,494.342 1133.298,502.267 1133.298,512.576L1133.298,656.114C1133.298,666.227 1131.973,674.105 1129.321,679.745C1126.669,685.385 1122.877,688.205 1117.945,688.205L1106.221,688.205C1101.382,688.205 1097.614,685.385 1094.915,679.745C1092.217,674.105 1090.868,666.227 1090.868,656.114L1090.868,512.576ZM1107.896,654.947C1107.896,656.892 1108.361,657.864 1109.292,657.864L1114.875,657.864C1115.805,657.864 1116.27,656.892 1116.27,654.947L1116.27,513.743C1116.27,511.798 1115.805,510.825 1114.875,510.825L1109.292,510.825C1108.361,510.825 1107.896,511.798 1107.896,513.743L1107.896,654.947Z" class="logo-foreground" style="fill-rule:nonzero;"/>
        <path d="M1138.323,512.576C1138.323,502.267 1139.672,494.342 1142.371,488.799C1145.069,483.255 1148.838,480.484 1153.676,480.484L1165.401,480.484C1170.332,480.484 1174.124,483.255 1176.776,488.799C1179.428,494.342 1180.754,502.267 1180.754,512.576L1180.754,567.424L1163.726,567.424L1163.726,513.743C1163.726,511.798 1163.26,510.825 1162.33,510.825L1156.747,510.825C1155.817,510.825 1155.351,511.798 1155.351,513.743L1155.351,653.196C1155.351,655.141 1155.817,656.114 1156.747,656.114L1162.33,656.114C1163.26,656.114 1163.726,655.141 1163.726,653.196L1163.726,597.765L1180.754,597.765L1180.754,656.114C1180.754,666.227 1179.428,674.105 1176.776,679.745C1174.124,685.385 1170.332,688.205 1165.401,688.205L1153.676,688.205C1148.838,688.205 1145.069,685.385 1142.371,679.745C1139.672,674.105 1138.323,666.227 1138.323,656.114L1138.323,512.576Z" class="logo-foreground" style="fill-rule:nonzero;"/>
        <path d="M1185.779,512.576C1185.779,502.267 1187.128,494.342 1189.826,488.799C1192.525,483.255 1196.293,480.484 1201.132,480.484L1212.856,480.484C1217.788,480.484 1221.579,483.255 1224.231,488.799C1226.883,494.342 1228.209,502.267 1228.209,512.576L1228.209,549.919L1211.181,549.919L1211.181,513.743C1211.181,511.798 1210.716,510.825 1209.785,510.825L1204.202,510.825C1203.272,510.825 1202.807,511.798 1202.807,513.743L1202.807,551.669C1202.807,553.809 1203.318,555.559 1204.342,556.921L1219.276,579.677C1221.975,583.761 1224.138,588.867 1225.767,594.993C1227.395,601.12 1228.209,607.587 1228.209,614.394L1228.209,656.114C1228.209,666.227 1226.883,674.105 1224.231,679.745C1221.579,685.385 1217.788,688.205 1212.856,688.205L1201.132,688.205C1196.293,688.205 1192.525,685.385 1189.826,679.745C1187.128,674.105 1185.779,666.227 1185.779,656.114L1185.779,615.27L1202.807,615.27L1202.807,654.947C1202.807,656.892 1203.272,657.864 1204.202,657.864L1209.785,657.864C1210.716,657.864 1211.181,656.892 1211.181,654.947L1211.181,614.394C1211.181,612.255 1210.669,610.504 1209.646,609.143L1194.572,586.095C1191.78,582.011 1189.617,576.954 1188.082,570.924C1186.546,564.895 1185.779,558.477 1185.779,551.669L1185.779,512.576Z" class="logo-foreground" style="fill-rule:nonzero;"/>
    </g>
</svg>
